<?xml version="1.0" encoding="iso-8859-1"?>
<!-- Generator: Adobe Illustrator 19.1.0, SVG Export Plug-In . SVG Version: 6.00 Build 0)  -->
<svg version="1.1" id="Capa_1" xmlns="http://www.w3.org/2000/svg" xmlns:xlink="http://www.w3.org/1999/xlink" x="0px" y="0px"
	 viewBox="0 0 470 470" style="enable-background:new 0 0 470 470;" xml:space="preserve">
<g>
	<path style="fill:#9345EB;" d="M172.5,407.638v-64.636c-23.311-5.285-45.865-13.519-67.037-24.534
		c-0.042-0.022-0.085-0.043-0.127-0.066c-0.5-0.26-1.002-0.515-1.5-0.779l-20.652,49.858
		C110.284,386.402,140.495,399.964,172.5,407.638z"/>
	<rect x="217.5" y="350" style="fill:#9345EB;" width="35" height="35"/>
	<path style="fill:#9345EB;" d="M350.21,397.187c1.313-0.611,2.62-1.235,3.924-1.867c0.409-0.198,0.817-0.398,1.224-0.598
		c1.303-0.64,2.603-1.288,3.897-1.949c-1.688-3.555-0.345-7.852,3.146-9.777c8.383-4.623,16.553-9.751,24.482-15.351l-20.719-50.021
		c-0.499,0.264-1.002,0.519-1.503,0.78c-0.04,0.022-0.08,0.042-0.121,0.062c-21.173,11.016-43.729,19.251-67.041,24.536v64.915
		c12.238-2.866,24.177-6.593,35.763-11.181c3.694-1.461,7.848,0.219,9.527,3.757c2.106-0.904,4.203-1.829,6.286-2.786
		C349.453,397.533,349.833,397.362,350.21,397.187z"/>
	<path style="fill:#39494C;" d="M433.661,347.71c-19.402,19.403-40.94,35.694-64.016,48.42c-3.627,2-8.188,0.681-10.189-2.945
		c-0.074-0.135-0.135-0.273-0.2-0.41c-1.294,0.661-2.594,1.307-3.898,1.947c-0.408,0.2-0.816,0.4-1.224,0.598
		c-1.303,0.632-2.61,1.256-3.924,1.867c-0.377,0.176-0.757,0.346-1.135,0.52c-2.083,0.957-4.178,1.887-6.284,2.79
		c0.071,0.149,0.144,0.296,0.206,0.452c1.524,3.851-0.361,8.209-4.213,9.734C306.409,423.501,271.49,430,235,430
		c-75.044,0-145.597-29.224-198.661-82.29c-2.361-2.361-5.5-3.661-8.839-3.661s-6.478,1.3-8.839,3.661
		c-4.874,4.874-4.874,12.805,0,17.679C76.448,423.176,153.279,455,235,455c81.721,0,158.552-31.824,216.339-89.611
		c4.874-4.874,4.874-12.805,0-17.679C446.466,342.836,438.534,342.836,433.661,347.71z"/>
	<path style="fill:#39494C;" d="M118.538,308.264c17.208,8.382,35.316,14.856,53.962,19.334V312.5c0-4.142,3.358-7.5,7.5-7.5h110
		c4.143,0,7.5,3.358,7.5,7.5v15.098c18.646-4.479,36.755-10.952,53.963-19.334L235,27.099L118.538,308.264z M209.167,196.197
		c-4.135,0-7.5-3.365-7.5-7.5s3.365-7.5,7.5-7.5s7.5,3.365,7.5,7.5S213.302,196.197,209.167,196.197z M246.667,209.697
		c0,4.135-3.365,7.5-7.5,7.5s-7.5-3.365-7.5-7.5s3.365-7.5,7.5-7.5S246.667,205.562,246.667,209.697z"/>
	<path style="fill:#081C1F;" d="M209.167,181.197c-4.135,0-7.5,3.365-7.5,7.5s3.365,7.5,7.5,7.5s7.5-3.365,7.5-7.5
		S213.302,181.197,209.167,181.197z"/>
	<path style="fill:#081C1F;" d="M231.667,209.697c0,4.135,3.365,7.5,7.5,7.5s7.5-3.365,7.5-7.5s-3.365-7.5-7.5-7.5
		S231.667,205.562,231.667,209.697z"/>
	<path style="fill:#FFB033;" d="M282.5,320h-95v90.781C203.021,413.564,218.899,415,235,415c16.203,0,32.064-1.366,47.5-4.045V320z
		 M260,400h-50c-4.142,0-7.5-3.358-7.5-7.5v-50c0-4.142,3.358-7.5,7.5-7.5h50c4.143,0,7.5,3.358,7.5,7.5v50
		C267.5,396.642,264.142,400,260,400z"/>
	<path style="fill:#081C1F;" d="M267.5,342.5c0-4.142-3.357-7.5-7.5-7.5h-50c-4.142,0-7.5,3.358-7.5,7.5v50
		c0,4.142,3.358,7.5,7.5,7.5h50c4.143,0,7.5-3.358,7.5-7.5V342.5z M252.5,350v35h-35v-35H252.5z"/>
	<path style="fill:#081C1F;" d="M461.946,337.104c-10.723-10.723-28.17-10.723-38.893,0c-7.599,7.6-15.545,14.685-23.786,21.244
		l-22.447-54.193c-0.823-1.988-2.46-3.526-4.496-4.224c-2.032-0.697-4.271-0.489-6.142,0.576c-0.458,0.26-0.92,0.512-1.379,0.77
		L241.929,4.63C240.768,1.827,238.033,0,235,0s-5.768,1.827-6.929,4.63L105.196,301.275c-0.459-0.257-0.921-0.509-1.378-0.769
		c-1.871-1.065-4.107-1.274-6.143-0.576c-2.035,0.698-3.672,2.236-4.496,4.224l-22.413,54.11
		c-8.287-6.532-16.245-13.584-23.821-21.16c-10.722-10.723-28.169-10.723-38.891,0c-10.723,10.723-10.723,28.169,0,38.892
		C68.675,436.615,149.272,470,235,470c85.728,0,166.325-33.385,226.946-94.004C472.668,365.273,472.668,347.827,461.946,337.104z
		 M451.339,365.389C393.552,423.176,316.721,455,235,455c-81.721,0-158.552-31.824-216.339-89.611
		c-4.874-4.874-4.874-12.805,0-17.679c2.361-2.361,5.5-3.661,8.839-3.661s6.478,1.3,8.839,3.661C89.403,400.776,159.956,430,235,430
		c36.49,0,71.409-6.499,103.784-19.317c3.852-1.524,5.737-5.883,4.213-9.734c-0.062-0.156-0.135-0.303-0.206-0.452
		c-1.681-3.542-5.834-5.222-9.529-3.761c-11.586,4.587-23.524,8.315-35.763,11.181v-64.915c23.312-5.285,45.867-13.52,67.041-24.536
		c0.04-0.021,0.081-0.041,0.121-0.062c0.5-0.261,1.004-0.516,1.503-0.78l20.719,50.021c-7.929,5.6-16.098,10.728-24.482,15.351
		c-3.492,1.925-4.834,6.223-3.146,9.777c0.066,0.139,0.127,0.277,0.201,0.412c2.001,3.626,6.562,4.946,10.189,2.945
		c23.075-12.726,44.613-29.017,64.016-48.42c4.873-4.874,12.805-4.874,17.678,0C456.213,352.584,456.213,360.515,451.339,365.389z
		 M235,415c-16.101,0-31.979-1.436-47.5-4.219V320h95v90.955C267.064,413.634,251.203,415,235,415z M297.5,327.598V312.5
		c0-4.142-3.357-7.5-7.5-7.5H180c-4.142,0-7.5,3.358-7.5,7.5v15.098c-18.646-4.479-36.755-10.952-53.962-19.334L235,27.099
		l116.463,281.165C334.255,316.646,316.146,323.12,297.5,327.598z M103.836,317.624c0.498,0.263,1.001,0.518,1.5,0.779
		c0.042,0.023,0.085,0.044,0.127,0.066c21.172,11.015,43.726,19.249,67.037,24.534v64.636
		c-32.004-7.673-62.215-21.236-89.315-40.156L103.836,317.624z"/>
</g>
<g>
</g>
<g>
</g>
<g>
</g>
<g>
</g>
<g>
</g>
<g>
</g>
<g>
</g>
<g>
</g>
<g>
</g>
<g>
</g>
<g>
</g>
<g>
</g>
<g>
</g>
<g>
</g>
<g>
</g>
</svg>
